<svg xmlns="http://www.w3.org/2000/svg" xmlns:xlink="http://www.w3.org/1999/xlink" width="1500" zoomAndPan="magnify" viewBox="0 0 1125 562.499983" height="750" preserveAspectRatio="xMidYMid meet" version="1.0"><defs><g/><clipPath id="8610e3588f"><path d="M 129.585938 221 L 528 221 L 528 562 L 129.585938 562 Z M 129.585938 221 " clip-rule="nonzero"/></clipPath><clipPath id="e187859800"><path d="M 534 221 L 995.066406 221 L 995.066406 562 L 534 562 Z M 534 221 " clip-rule="nonzero"/></clipPath></defs><g fill="#000000" fill-opacity="1"><g transform="translate(558.678374, 152.350757)"><g><path d="M 6.765625 -5.9375 L 0.875 -5.9375 L 0.875 -6.890625 L 6.765625 -6.890625 Z M 6.765625 -3.09375 L 0.875 -3.09375 L 0.875 -4.046875 L 6.765625 -4.046875 Z M 6.765625 -3.09375 "/></g></g></g><path fill="#4e4e4e" d="M 346.003906 99.347656 C 346.003906 154.15625 301.578125 198.464844 247.011719 198.464844 C 192.097656 198.464844 147.789062 154.15625 147.789062 99.347656 C 147.777344 44.664062 192.089844 0.238281 247.011719 0.238281 C 301.578125 0.238281 346.003906 44.664062 346.003906 99.347656 Z M 346.003906 99.347656 " fill-opacity="1" fill-rule="nonzero"/><path fill="#4e4e4e" d="M 878.882812 17.5625 C 924.113281 17.5625 960.90625 54.25 960.917969 99.347656 C 960.917969 144.445312 924.121094 181.140625 878.882812 181.140625 C 833.839844 181.140625 797.199219 144.445312 797.199219 99.347656 C 797.207031 54.25 833.839844 17.5625 878.882812 17.5625 M 878.882812 0.238281 C 824.324219 0.238281 779.882812 44.664062 779.882812 99.347656 C 779.882812 154.15625 824.324219 198.464844 878.882812 198.464844 C 933.796875 198.464844 978.222656 154.15625 978.222656 99.347656 C 978.222656 44.664062 933.789062 0.238281 878.882812 0.238281 Z M 878.882812 0.238281 " fill-opacity="1" fill-rule="nonzero"/><g clip-path="url(#8610e3588f)"><path fill="#4e4e4e" d="M 508.144531 439.984375 C 505.890625 418.898438 514.003906 399.382812 527.773438 385.183594 C 443.871094 369.164062 409.480469 328.25 379.609375 291.25 C 365.066406 273.101562 351.195312 255.847656 332.816406 243.667969 C 332.253906 243.328125 331.585938 243.328125 331.128906 242.875 C 315.457031 229.898438 295.601562 221.679688 273.746094 221.679688 L 220.179688 221.679688 C 170.554688 221.6875 129.960938 262.183594 129.960938 311.78125 L 129.960938 561.761719 L 363.929688 561.761719 L 363.929688 400.1875 C 398.089844 430.066406 446.355469 458.480469 520.546875 470.882812 C 514.34375 461.867188 509.503906 451.707031 508.144531 439.984375 Z M 508.144531 439.984375 " fill-opacity="1" fill-rule="nonzero"/></g><g clip-path="url(#e187859800)"><path fill="#4e4e4e" d="M 905.839844 239.015625 C 945.960938 239.015625 978.609375 271.652344 978.609375 311.789062 L 978.609375 544.445312 L 779.40625 544.445312 L 779.40625 362.265625 L 750.601562 387.777344 C 706.21875 427.074219 650.515625 450.019531 580.277344 457.898438 L 579.660156 457.945312 C 578.722656 457.996094 577.828125 458.070312 576.925781 458.070312 C 563.847656 458.070312 552.925781 448.285156 551.53125 435.265625 C 549.996094 421.238281 560.136719 408.515625 574.09375 406.914062 C 684.980469 394.65625 726.296875 343.539062 759.5 302.472656 L 759.777344 302.132812 L 759.792969 302.105469 C 773.109375 285.511719 785.707031 269.8125 801.46875 258.984375 C 802.78125 258.394531 804.328125 257.535156 805.980469 256.195312 C 819.277344 245.117188 835.671875 239.015625 852.15625 239.015625 L 905.839844 239.015625 M 905.839844 221.6875 L 852.15625 221.6875 C 830.402344 221.6875 810.449219 229.917969 794.890625 242.890625 C 794.339844 243.339844 793.640625 243.339844 793.203125 243.667969 C 774.816406 255.847656 760.957031 272.996094 746.292969 291.265625 C 713.484375 331.859375 676.277344 378.195312 572.199219 389.707031 C 548.648438 392.402344 531.742188 413.597656 534.324219 437.167969 C 536.683594 459.160156 555.292969 475.394531 576.9375 475.394531 C 578.515625 475.394531 580.097656 475.261719 581.789062 475.171875 C 669.960938 465.359375 724.546875 434.015625 762.089844 400.75 L 762.089844 561.769531 L 995.933594 561.769531 L 995.933594 311.78125 C 995.925781 262.183594 955.332031 221.6875 905.839844 221.6875 Z M 905.839844 221.6875 " fill-opacity="1" fill-rule="nonzero"/></g></svg>